<?xml version="1.0" encoding="UTF-8"?>
<svg xmlns="http://www.w3.org/2000/svg" xmlns:xlink="http://www.w3.org/1999/xlink" width="512pt" height="512pt" viewBox="0 0 512 512" version="1.1">
<defs>
<radialGradient id="radial0" gradientUnits="userSpaceOnUse" cx="32" cy="34" fx="32" fy="34" r="33.0021" spreadMethod="reflect" gradientTransform="matrix(8,0,0,8,0,0)">
<stop offset="0" style="stop-color:#FFFFFF;stop-opacity:1;"/>
<stop offset="0.1927" style="stop-color:#FFFFFF;stop-opacity:1;"/>
<stop offset="0.7025" style="stop-color:#FFFFFF;stop-opacity:1;"/>
<stop offset="1" style="stop-color:#FFFFFF;stop-opacity:1;"/>
</radialGradient>
</defs>
<g id="surface1">
<path style=" stroke:none;fill-rule:nonzero;fill:url(#radial0);" d="M 464 344 L 482.40625 344 C 496.28125 344 509.1875 334.6875 511.5625 321.03125 C 514.625 303.34375 501.09375 288 484 288 L 448.78125 288 C 440.9375 288 433.625 282.6875 432.25 274.9375 C 430.5 265.03125 437.84375 256.4375 447.28125 256.03125 C 447.34375 256.03125 464 256 464 256 C 477.25 256 488 245.25 488 232 C 488 218.75 477.25 208 464 208 L 453.59375 208 C 439.71875 208 426.8125 198.6875 424.4375 185.03125 C 421.375 167.34375 434.90625 152 452 152 L 466.40625 152 C 480.28125 152 493.1875 142.6875 495.5625 129.03125 C 498.625 111.34375 485.09375 96 468 96 L 336 96 L 256 128 L 144 96 L 144 128 L 37.59375 128 C 23.71875 128 10.8125 137.3125 8.4375 150.96875 C 5.375 168.65625 18.90625 184 36 184 L 50.40625 184 C 65.5625 184 79.15625 195.34375 79.96875 210.5 C 80.8125 226.625 67.96875 240 52 240 L 45.15625 240 C 34.6875 240 25.15625 247.53125 24.09375 257.9375 C 22.90625 269.90625 32.28125 280 44 280 C 51.84375 280 59.34375 284.40625 62.3125 291.6875 C 68.21875 306.15625 57.71875 320 44 320 L 25.375 320 C 12.375 320 0.71875 329.71875 0.03125 342.71875 C -0.6875 356.5625 10.3125 368 24 368 L 63.15625 368 C 71.125 368 78.5 373.4375 79.78125 381.3125 C 81.40625 391.34375 73.71875 400 64 400 L 57.375 400 C 44.375 400 32.71875 409.71875 32.03125 422.71875 C 31.3125 436.5625 42.3125 448 56 448 L 384 448 L 384 440 L 462.8125 440 C 475.46875 440 486.84375 430.71875 487.90625 418.09375 C 489.125 403.875 477.90625 391.9375 463.90625 392 C 455.6875 392.03125 447.625 388.53125 443.625 381.34375 C 433.3125 362.8125 446.46875 344 464 344 Z "/>
<path style=" stroke:none;fill-rule:nonzero;fill:#FFFFFF;fill-opacity:1;" d="M 376 80 L 288 80 C 288 97.6875 273.6875 112 256 112 C 238.3125 112 224 97.6875 224 80 L 136 80 C 114 80 96 98 96 120 L 96 432 C 96 454 114 472 136 472 L 376 472 C 398 472 416 454 416 432 L 416 120 C 416 98 398 80 376 80 Z "/>
<path style=" stroke:none;fill-rule:nonzero;fill:#FFFFFF;fill-opacity:1;" d="M 360 432 L 152 432 C 143.15625 432 136 424.84375 136 416 L 136 136 C 136 127.15625 143.15625 120 152 120 L 360 120 C 368.84375 120 376 127.15625 376 136 L 376 416 C 376 424.84375 368.84375 432 360 432 Z "/>
<path style=" stroke:none;fill-rule:nonzero;fill:#FFFFFF;fill-opacity:1;" d="M 360 432 L 152 432 C 143.15625 432 136 424.84375 136 416 L 136 136 C 136 127.15625 143.15625 120 152 120 L 360 120 C 368.84375 120 376 127.15625 376 136 L 376 416 C 376 424.84375 368.84375 432 360 432 Z "/>
<path style=" stroke:none;fill-rule:nonzero;fill:#FFFFFF;fill-opacity:1;" d="M 312 80 C 312 49.0625 286.9375 24 256 24 C 225.0625 24 200 49.0625 200 80 L 168 80 L 168 128 C 168 141.25 178.75 152 192 152 L 320 152 C 333.25 152 344 141.25 344 128 L 344 80 Z M 256 104 C 242.75 104 232 93.25 232 80 C 232 66.75 242.75 56 256 56 C 269.25 56 280 66.75 280 80 C 280 93.25 269.25 104 256 104 Z "/>
<path style=" stroke:none;fill-rule:nonzero;fill:#FFFFFF;fill-opacity:1;" d="M 348.625 225.0625 L 318.9375 195.40625 C 314.40625 190.875 307.0625 190.875 302.5625 195.40625 L 288.59375 209.375 L 334.65625 255.4375 L 348.625 241.46875 C 353.125 236.90625 353.125 229.59375 348.625 225.0625 "/>
<path style=" stroke:none;fill-rule:nonzero;fill:#FFFFFF;fill-opacity:1;" d="M 229.5625 360.53125 L 183.5 314.46875 L 272 225.9375 L 318.0625 272 Z "/>
<path style=" stroke:none;fill-rule:nonzero;fill:#FFFFFF;fill-opacity:1;" d="M 318.09375 272.03125 L 272.03125 225.96875 L 288.5625 209.40625 L 334.65625 255.4375 Z "/>
<path style=" stroke:none;fill-rule:nonzero;fill:#FFFFFF;fill-opacity:1;" d="M 183.5 314.4375 L 168 376 L 229.5625 360.5 Z "/>
<path style=" stroke:none;fill-rule:nonzero;fill:#FFFFFF;fill-opacity:1;" d="M 175.84375 344.875 L 168 376 L 199.125 368.15625 Z "/>
</g>
</svg>
